<?xml version="1.0" encoding="UTF-8"?>
<svg xmlns="http://www.w3.org/2000/svg" id="ebf6cdd3-9a53-444f-bed0-88b211125a3e" data-name="Calque 1" viewBox="0 0 260.59 58"><defs><style>.b1633300-1e79-4870-ba90-6eee507e6b30{fill:#373cf5;}.f6c4dc75-c5d6-46ab-9597-59712b32c0e9{fill:#fff;}</style></defs><g id="a68cd4fc-8bda-41c6-abe0-4278f38adc5d" data-name="Calque 4"><path class="b1633300-1e79-4870-ba90-6eee507e6b30" d="M231.68,58H28.88A28.87,28.87,0,0,1,.07,29.18v-.39A28.88,28.88,0,0,1,28.88,0h202.8a28.88,28.88,0,0,1,28.81,28.81v.39A28.87,28.87,0,0,1,231.68,58"/><path class="f6c4dc75-c5d6-46ab-9597-59712b32c0e9" d="M23.27,29a17.45,17.45,0,0,0,17.4,17.4A17.07,17.07,0,0,0,51.3,42.71l-3.57-4.06a11.8,11.8,0,0,1-7.06,2.22,11.89,11.89,0,0,1,0-23.78,13,13,0,0,1,4.74,1l2.12-5.12a16.53,16.53,0,0,0-7-1.45A17.57,17.57,0,0,0,23.27,29"/><path class="f6c4dc75-c5d6-46ab-9597-59712b32c0e9" d="M31.39,29a9.24,9.24,0,0,0,14.5,7.64s-3.38-3.77-3.67-4.16a3.15,3.15,0,0,1-1.45.29,3.67,3.67,0,0,1-3.68-3.67,3.78,3.78,0,0,1,3.77-3.77,4.43,4.43,0,0,1,1.55.29l2.13-5a9,9,0,0,0-3.68-.77A9.24,9.24,0,0,0,31.39,29"/><path class="f6c4dc75-c5d6-46ab-9597-59712b32c0e9" d="M47.63,25.41A8.14,8.14,0,0,1,48.5,29a9.66,9.66,0,0,1-1.64,4.93L50.53,38A13.62,13.62,0,0,0,54,29a14.28,14.28,0,0,0-1.35-6Z"/><path class="f6c4dc75-c5d6-46ab-9597-59712b32c0e9" d="M46.08,23.28l9.48-4.35a17.89,17.89,0,0,0-5.32-5.12l-4.16,9.47Z"/></g><g id="b1fa0747-65cc-444d-bc86-2ad696826371" data-name="Calque 3"><path class="f6c4dc75-c5d6-46ab-9597-59712b32c0e9" d="M75.37,12.94A7,7,0,0,1,77.21,14l-1.45,1.84a3.7,3.7,0,0,0-1.16-.68A2.7,2.7,0,0,0,73.34,15a2.4,2.4,0,0,0-2.12,1.16,6.54,6.54,0,0,0-.78,3.48,6.59,6.59,0,0,0,.78,3.48,2.42,2.42,0,0,0,2.12,1.16A3.15,3.15,0,0,0,74.7,24,9.49,9.49,0,0,0,76,23.18L77.4,25a6.91,6.91,0,0,1-1.83,1.26,5.85,5.85,0,0,1-2.32.48A6.51,6.51,0,0,1,70.06,26a5.79,5.79,0,0,1-2.13-2.42,9.08,9.08,0,0,1-.77-3.77A9.08,9.08,0,0,1,67.93,16a5.79,5.79,0,0,1,2.13-2.42,5.64,5.64,0,0,1,3.09-.77A4.19,4.19,0,0,1,75.37,12.94Z"/><path class="f6c4dc75-c5d6-46ab-9597-59712b32c0e9" d="M86,12.94A7.15,7.15,0,0,1,87.84,14l-1.45,1.84a3.59,3.59,0,0,0-1.16-.68A2.66,2.66,0,0,0,84,15a2.41,2.41,0,0,0-2.13,1.16,6.64,6.64,0,0,0-.77,3.48,6.69,6.69,0,0,0,.77,3.48A2.43,2.43,0,0,0,84,24.25,3.14,3.14,0,0,0,85.33,24a9.57,9.57,0,0,0,1.26-.78L88,25a7.15,7.15,0,0,1-1.84,1.26,5.85,5.85,0,0,1-2.32.48A6.51,6.51,0,0,1,80.69,26a5.86,5.86,0,0,1-2.13-2.42,9.08,9.08,0,0,1-.77-3.77A9.08,9.08,0,0,1,78.56,16a5.86,5.86,0,0,1,2.13-2.42,5.67,5.67,0,0,1,3.09-.77A4.29,4.29,0,0,1,86,12.94Z"/><path class="f6c4dc75-c5d6-46ab-9597-59712b32c0e9" d="M92.29,12.94V26.37H89.1V12.94Z"/><path class="f6c4dc75-c5d6-46ab-9597-59712b32c0e9" d="M109,14.39a7.61,7.61,0,0,1,1.55,5.22,10.89,10.89,0,0,1-.68,3.77,5.56,5.56,0,0,1-2,2.41,5.72,5.72,0,0,1-8.41-2.41,9.14,9.14,0,0,1-.67-3.77,11.09,11.09,0,0,1,.67-3.77,5.41,5.41,0,0,1,5.22-3.29A6.22,6.22,0,0,1,109,14.39Zm-6.47,1.74a6.79,6.79,0,0,0-.68,3.57,6.81,6.81,0,0,0,.68,3.58,2.28,2.28,0,0,0,2,1.16,2.19,2.19,0,0,0,2-1.06,7,7,0,0,0,.67-3.58,7,7,0,0,0-.67-3.58,2.2,2.2,0,0,0-2-1.06A2,2,0,0,0,102.54,16.13Z"/><path class="f6c4dc75-c5d6-46ab-9597-59712b32c0e9" d="M115.49,12.94V26.37H112.3V12.94Z"/><path class="f6c4dc75-c5d6-46ab-9597-59712b32c0e9" d="M124.77,13a5.56,5.56,0,0,1,2,1.26L125.35,16a4.28,4.28,0,0,0-2.9-1.16,2.81,2.81,0,0,0-1.35.29,1.19,1.19,0,0,0-.49,1,1.06,1.06,0,0,0,.2.67,1.15,1.15,0,0,0,.77.49c.39.09.87.38,1.64.58a7.77,7.77,0,0,1,3,1.64,3.58,3.58,0,0,1,1,2.71,3.59,3.59,0,0,1-.68,2.22,3.44,3.44,0,0,1-1.84,1.45,6.27,6.27,0,0,1-2.8.48,9.13,9.13,0,0,1-2.9-.48,6.76,6.76,0,0,1-2.13-1.35l1.65-1.74a4.49,4.49,0,0,0,1.54,1,5.29,5.29,0,0,0,1.74.29,2,2,0,0,0,1.55-.48,1.37,1.37,0,0,0,.58-1.16,3,3,0,0,0-.19-.87,1.8,1.8,0,0,0-.78-.58,10.87,10.87,0,0,0-1.45-.58,8.2,8.2,0,0,1-3.19-1.64,3.68,3.68,0,0,1-1-2.52,3.56,3.56,0,0,1,.58-2,3.49,3.49,0,0,1,1.74-1.35,6.8,6.8,0,0,1,2.51-.48A25.37,25.37,0,0,1,124.77,13Z"/><path class="f6c4dc75-c5d6-46ab-9597-59712b32c0e9" d="M137,12.94l-.29,2.22h-4.74v3.19H136v2.22h-4.06V24h5.13v2.22h-8.22V12.94Z"/><path class="f6c4dc75-c5d6-46ab-9597-59712b32c0e9" d="M74.31,44.93v-5.8h-4v5.8H67.16V31.4h3.19v5.22h4V31.4H77.5V44.84H74.31Z"/><path class="f6c4dc75-c5d6-46ab-9597-59712b32c0e9" d="M86.88,44.93,86.2,42H82.33l-.67,2.9H78.27L82.33,31.5H86.2l4.06,13.43Zm-4.06-5.31h2.8l-1.45-6Z"/><path class="f6c4dc75-c5d6-46ab-9597-59712b32c0e9" d="M101.18,40.39a5,5,0,0,1-.58,2.42,4.07,4.07,0,0,1-1.74,1.64A6.4,6.4,0,0,1,96,45a5.32,5.32,0,0,1-3.86-1.26,4.51,4.51,0,0,1-1.36-3.38v-9h3.19v8.89a3.59,3.59,0,0,0,.49,1.94,2.35,2.35,0,0,0,3.09,0A3.36,3.36,0,0,0,98,40.29V31.4h3.19v9Z"/><path class="f6c4dc75-c5d6-46ab-9597-59712b32c0e9" d="M112.59,31.4l-.29,2.42H109v11h-3.19v-11h-3.48V31.4Z"/><path class="f6c4dc75-c5d6-46ab-9597-59712b32c0e9" d="M120.13,31.5a5.53,5.53,0,0,1,2,1.25l-1.45,1.74a4.28,4.28,0,0,0-2.9-1.16,2.81,2.81,0,0,0-1.35.29,1.21,1.21,0,0,0-.49,1,1.12,1.12,0,0,0,.2.68,1.18,1.18,0,0,0,.77.48,7.8,7.8,0,0,0,1.64.58,7.9,7.9,0,0,1,3,1.64,4.13,4.13,0,0,1,.29,4.93A3.44,3.44,0,0,1,120,44.35a6.27,6.27,0,0,1-2.8.49,9.13,9.13,0,0,1-2.9-.49A6.59,6.59,0,0,1,112.2,43l1.65-1.74a4.69,4.69,0,0,0,1.54,1,5.57,5.57,0,0,0,1.74.29,2,2,0,0,0,1.55-.49,1.36,1.36,0,0,0,.58-1.16,3,3,0,0,0-.19-.87,1.88,1.88,0,0,0-.78-.58,12.42,12.42,0,0,0-1.45-.58,8.07,8.07,0,0,1-3.19-1.64,3.67,3.67,0,0,1-1-2.51A3.49,3.49,0,0,1,115,31.3a6.8,6.8,0,0,1,2.51-.48A12.51,12.51,0,0,1,120.13,31.5Z"/><path class="f6c4dc75-c5d6-46ab-9597-59712b32c0e9" d="M123.8,39.13V36.81H130v2.32Z"/><path class="f6c4dc75-c5d6-46ab-9597-59712b32c0e9" d="M140.62,32.75c1.26,1,1.94,2.71,1.94,5.32s-.58,4.25-1.84,5.32a7.74,7.74,0,0,1-4.93,1.54h-4V31.4h3.67A8.71,8.71,0,0,1,140.62,32.75Zm-5.6.87v8.9h1.06a2.62,2.62,0,0,0,2.32-1c.58-.68.77-1.84.77-3.48a6.19,6.19,0,0,0-.38-2.61,2.86,2.86,0,0,0-1.07-1.26,4.24,4.24,0,0,0-1.74-.38l-1-.2Z"/><path class="f6c4dc75-c5d6-46ab-9597-59712b32c0e9" d="M152.61,31.4l-.29,2.22h-4.74v3.19h4.06V39h-4.06v3.48h5.13v2.22h-8.22V31.4Z"/><path class="f6c4dc75-c5d6-46ab-9597-59712b32c0e9" d="M153.58,39.13V36.81h6.18v2.32Z"/><path class="f6c4dc75-c5d6-46ab-9597-59712b32c0e9" d="M161.7,44.93V31.4h8l-.29,2.22H165V37.2h3.87v2.22H165v5.42H161.7Z"/><path class="f6c4dc75-c5d6-46ab-9597-59712b32c0e9" d="M175.33,39.71h-1.26v5.22h-3.19V31.4h4.35a7.14,7.14,0,0,1,4.16,1,3.39,3.39,0,0,1,1.35,3.09,3.66,3.66,0,0,1-.58,2.13A4.47,4.47,0,0,1,178.23,39l3.38,5.8H178Zm-1.26-2.22h1.35A2.27,2.27,0,0,0,177,37a2.27,2.27,0,0,0,.48-1.55,1.68,1.68,0,0,0-.58-1.45,2.84,2.84,0,0,0-1.74-.48H174l.1,4Z"/><path class="f6c4dc75-c5d6-46ab-9597-59712b32c0e9" d="M189.83,44.93l-.68-2.9h-3.87l-.67,2.9h-3.29l4.06-13.43h3.87l4.06,13.43Zm-4.16-5.31h2.8l-1.45-6Z"/><path class="f6c4dc75-c5d6-46ab-9597-59712b32c0e9" d="M204.33,44.93h-4.06L196.4,34.49c.1,1,.19,1.94.29,2.71a23.61,23.61,0,0,1,.1,2.8v5H194V31.5h4l4,10.44a30.19,30.19,0,0,1-.39-5V31.4h2.81V44.93Z"/><path class="f6c4dc75-c5d6-46ab-9597-59712b32c0e9" d="M214.38,31.4a7,7,0,0,1,1.84,1.06l-1.45,1.84a3.81,3.81,0,0,0-1.16-.68,2.72,2.72,0,0,0-1.26-.19,2.45,2.45,0,0,0-2.13,1.16,6.64,6.64,0,0,0-.77,3.48,6.64,6.64,0,0,0,.77,3.48,2.45,2.45,0,0,0,2.13,1.16,3.11,3.11,0,0,0,1.35-.29,8.53,8.53,0,0,0,1.26-.77l1.45,1.83a6.6,6.6,0,0,1-1.84,1.26,4.73,4.73,0,0,1-2.32.48,6.54,6.54,0,0,1-3.19-.77A5.71,5.71,0,0,1,206.94,42a9.5,9.5,0,0,1,0-7.54,5.39,5.39,0,0,1,5.22-3.19A3.45,3.45,0,0,1,214.38,31.4Z"/><path class="f6c4dc75-c5d6-46ab-9597-59712b32c0e9" d="M225.88,31.4l-.29,2.22h-4.73v3.19h4.06V39h-4.06v3.48H226v2.22h-8.31V31.4Z"/></g></svg>